<svg xmlns="http://www.w3.org/2000/svg" xmlns:xlink="http://www.w3.org/1999/xlink" style="display:none"><symbol id="icon-chrono" viewbox="0 0 24 24"><g stroke="currentColor" fill="none" stroke-width="1.5" stroke-linecap="round" stroke-linejoin="round"><path d="M12 5.25c4.971 0 9 4.029 9 9s-4.029 9-9 9-9-4.029-9-9 4.029-9 9-9zM18 7.5l1.875-1.875M19.5 5.25l.75.75M12 5.25V.75M14.25.75h-4.5M12 15l-3.75-4.151"/></g></symbol><symbol id="icon-close" viewbox="0 0 17 17"><g stroke="#000" stroke-width="1.5" fill="none" fill-rule="evenodd" stroke-linecap="round" stroke-linejoin="round"><path d="M1.469 15.53L15.53 1.469M15.531 15.53L1.47 1.469"/></g></symbol><symbol id="icon-dashboad" viewbox="0 0 33 24"><path d="M16.5 0C7.392.01.01 7.456 0 16.644v3.316c.003 2.23 1.794 4.037 4.005 4.04h24.99c2.21-.003 4.002-1.81 4.005-4.04v-3.316C32.99 7.456 25.608.01 16.5 0zm12.495 21.22H4.005a1.264 1.264 0 01-1.255-1.26v-1.857h3.438c.569 0 1.03-.466 1.03-1.04 0-.575-.461-1.04-1.03-1.04H2.764a13.872 13.872 0 011.156-4.979l2.79 1.629a1.027 1.027 0 001.41-.382 1.046 1.046 0 00-.379-1.421L4.895 9.205a13.902 13.902 0 013.406-3.689L9.855 8.23c.29.491.914.659 1.409.382.494-.287.661-.924.377-1.422L10.044 4.4a13.54 13.54 0 015.425-1.587v3.156c0 .575.462 1.04 1.031 1.04.57 0 1.031-.465 1.031-1.04V2.813a13.741 13.741 0 0110.574 6.4l-2.846 1.665a1.046 1.046 0 00-.378 1.422c.284.498.915.668 1.409.381l2.79-1.626a13.871 13.871 0 011.156 4.967h-3.424c-.569 0-1.03.466-1.03 1.04 0 .575.461 1.04 1.03 1.04h3.438v1.855c.001.7-.561 1.268-1.255 1.27v-.006zM22.777 6.627a1.024 1.024 0 00-1.425.305l-.001.001-4.125 6.406c-1.664-.406-3.338.625-3.741 2.303s.618 3.367 2.282 3.774c1.664.406 3.339-.624 3.742-2.303a3.14 3.14 0 00-.555-2.639l4.125-6.408a1.048 1.048 0 00-.302-1.44z" fill="#000" fill-rule="nonzero"/></symbol><symbol id="icon-deconnexion" viewbox="0 0 24 24"><path d="M13.5 17.5a1 1 0 00-1 1V21a.5.5 0 01-.5.5H2.5A.5.5 0 012 21V3a.5.5 0 01.5-.5H12a.5.5 0 01.5.5v2.5a1 1 0 002 0v-3a2 2 0 00-2-2H2a2 2 0 00-2 2v19a2 2 0 002 2h10.5a2 2 0 002-2v-3a1 1 0 00-1-1zm10.055-5.831l-6-4A1 1 0 0016 8.5V11H7a1.5 1.5 0 000 3h9v2.5c.008.549.451.992 1 1a.995.995 0 00.555-.168l6-4a1 1 0 000-1.663z"/></symbol><symbol id="icon-edit" viewbox="0 0 24 24"><path d="M12 4.75V5a1 1 0 002 0v-.25a.25.25 0 01.25-.25h1.25v4.7a.245.245 0 00.3.238c.479-.108.968-.17 1.459-.187a.244.244 0 00.24-.243V4.5a2 2 0 00-2-2H14.25a.25.25 0 01-.25-.25V1a1 1 0 00-2 0v1.25a.25.25 0 01-.25.25h-1.5a.25.25 0 01-.25-.25V1a1 1 0 00-2 0v1.25a.25.25 0 01-.25.25h-1.5A.25.25 0 016 2.25V1a1 1 0 00-2 0v1.25a.25.25 0 01-.25.25H2a2 2 0 00-2 2v13a2 2 0 002 2h7.2a.245.245 0 00.238-.3 7.875 7.875 0 01-.187-1.459.244.244 0 00-.243-.24H2V4.5h1.75a.25.25 0 01.25.25V5a1 1 0 002 0v-.25a.25.25 0 01.25-.25h1.5a.25.25 0 01.25.25V5a1 1 0 002 0v-.25a.25.25 0 01.25-.25h1.5a.25.25 0 01.25.25zm5.25 5.75A6.75 6.75 0 1024 17.25a6.758 6.758 0 00-6.75-6.75zm0 11.5A4.75 4.75 0 1122 17.25 4.756 4.756 0 0117.25 22zm2-5.75h-.75a.25.25 0 01-.25-.25v-1.25a1 1 0 00-2 0v2.5a1 1 0 001 1h2a1 1 0 000-2z"/></symbol><symbol id="icon-information" viewbox="0 0 24 24"><path d="M12 3.348c-6.624.007-11.993 5.376-12 12v2.391a2.917 2.917 0 002.913 2.913h18.174A2.917 2.917 0 0024 17.739v-2.391c-.007-6.624-5.376-11.993-12-12zm9.087 15.3H2.913A.915.915 0 012 17.739V16.4h2.5a.75.75 0 000-1.5H2.01a9.93 9.93 0 01.841-3.589l2.029 1.174a.75.75 0 00.75-1.3l-2.07-1.2a10.057 10.057 0 012.477-2.66l1.13 1.957a.762.762 0 001.025.275.75.75 0 00.274-1.025L7.305 6.521a9.91 9.91 0 013.945-1.145v2.276a.75.75 0 001.5 0V5.376a10.007 10.007 0 017.69 4.615l-2.07 1.2a.75.75 0 00.75 1.3l2.029-1.172a9.93 9.93 0 01.841 3.581H19.5a.75.75 0 000 1.5H22v1.337a.914.914 0 01-.913.915v-.004zM16.565 8.125a.749.749 0 00-1.036.22l-.001.001-3 4.619a2.254 2.254 0 101.257.818l3-4.62a.752.752 0 00-.22-1.038z"/></symbol><symbol id="icon-trash" viewbox="0 0 24 24"><path d="M19.5 7.5h-15A.5.5 0 004 8v14a2 2 0 002 2h12a2 2 0 002-2V8a.5.5 0 00-.5-.5zm-9.25 13a.75.75 0 01-1.5 0v-9a.75.75 0 011.5 0v9zm5 0a.75.75 0 01-1.5 0v-9a.75.75 0 011.5 0v9zM22 4h-4.75a.25.25 0 01-.25-.25V2.5A2.5 2.5 0 0014.5 0h-5A2.5 2.5 0 007 2.5v1.25a.25.25 0 01-.25.25H2a1 1 0 000 2h20a1 1 0 000-2zM9 3.75V2.5a.5.5 0 01.5-.5h5a.5.5 0 01.5.5v1.25a.25.25 0 01-.25.25h-5.5A.25.25 0 019 3.75z" fill="currentColor"/></symbol></svg>